<svg xmlns="http://www.w3.org/2000/svg" viewBox="0 0 635.49 109.60" width="635.49" height="109.60" role="img" aria-label="B Essential"><g transform="translate(-16.22,-18.41) scale(2.1854)"><g fill="none" stroke="#FFFFFF" stroke-width="2.6" opacity=".45"><line x1="32" y1="33" x2="16" y2="17"/><line x1="32" y1="33" x2="49" y2="19"/><line x1="32" y1="33" x2="41" y2="50"/></g><circle cx="16" cy="17" r="4" fill="#FFFFFF" opacity=".75"/><circle cx="49" cy="19" r="4" fill="#FFFFFF" opacity=".75"/><circle cx="41" cy="50" r="4" fill="#FFFFFF" opacity=".75"/><circle cx="32" cy="33" r="7.5" fill="#FFFFFF"/></g><g fill="#FFFFFF" transform="translate(117.000,89.800) scale(0.1,-0.1)"><path d="M46 0V116H138V584H46V700H406Q470 700 517.5 678.5Q565 657 591.5 617.5Q618 578 618 523V513Q618 465 600.0 434.5Q582 404 557.5 387.5Q533 371 511 364V346Q533 340 559.0 323.5Q585 307 603.5 276.0Q622 245 622 195V185Q622 127 595.0 85.5Q568 44 520.5 22.0Q473 0 410 0ZM270 120H394Q437 120 463.5 141.0Q490 162 490 201V211Q490 250 464.0 271.0Q438 292 394 292H270ZM270 412H392Q433 412 459.5 433.0Q486 454 486 491V501Q486 539 460.0 559.5Q434 580 392 580H270Z"/><path d="M981.200439453125 0.0V700.0H1412.0298461914062V624.0213623046875H1064.9189453125V389.56927490234375H1384.0298461914062V313.59063720703125H1064.9189453125V75.9786376953125H1416.6098022460938V0.0ZM1733.5501098632812 -14.0Q1642.9403076171875 -14.0 1580.5852966308594 28.0Q1518.2302856445312 70.0 1504.520263671875 161.49041748046875L1580.0490112304688 178.0Q1587.759033203125 130.2196044921875 1609.939208984375 102.76437377929688Q1632.119384765625 75.30914306640625 1664.4296264648438 63.614044189453125Q1696.7398681640625 51.9189453125 1733.5501098632812 51.9189453125Q1788.9104614257812 51.9189453125 1820.9158020019531 73.80914306640625Q1852.921142578125 95.6993408203125 1852.921142578125 132.8997802734375Q1852.921142578125 170.81024169921875 1822.6258239746094 186.50534057617188Q1792.3305053710938 202.200439453125 1739.1002197265625 211.6204833984375L1698.31982421875 218.75054931640625Q1650.5799560546875 227.33050537109375 1611.840087890625 244.1204833984375Q1573.1002197265625 260.91046142578125 1550.2953186035156 289.7803955078125Q1527.4904174804688 318.65032958984375 1527.4904174804688 362.68017578125Q1527.4904174804688 428.86993408203125 1578.2953186035156 465.8848571777344Q1629.1002197265625 502.8997802734375 1712.840087890625 502.8997802734375Q1795.840087890625 502.8997802734375 1847.6449890136719 465.5447692871094Q1899.4498901367188 428.18975830078125 1913.6098022460938 360.3795166015625L1839.921142578125 341.4200439453125Q1830.5010986328125 393.6204833984375 1796.7708129882812 415.3006591796875Q1763.04052734375 436.9808349609375 1712.840087890625 436.9808349609375Q1663.3496704101562 436.9808349609375 1634.4093627929688 418.4456481933594Q1605.4690551757812 399.91046142578125 1605.4690551757812 364.4200439453125Q1605.4690551757812 329.0596923828125 1632.5692749023438 312.58953857421875Q1659.6694946289062 296.119384765625 1706.4498901367188 287.98931884765625L1747.2302856445312 280.8592529296875Q1798.9701538085938 272.279296875 1840.5650329589844 256.48931884765625Q1882.159912109375 240.6993408203125 1906.5298461914062 211.97439575195312Q1930.8997802734375 183.24945068359375 1930.8997802734375 135.50958251953125Q1930.8997802734375 63.8997802734375 1877.5948791503906 24.94989013671875Q1824.2899780273438 -14.0 1733.5501098632812 -14.0ZM2250.5501098632812 -14.0Q2159.9403076171875 -14.0 2097.5852966308594 28.0Q2035.2302856445312 70.0 2021.520263671875 161.49041748046875L2097.0490112304688 178.0Q2104.759033203125 130.2196044921875 2126.939208984375 102.76437377929688Q2149.119384765625 75.30914306640625 2181.4296264648438 63.614044189453125Q2213.7398681640625 51.9189453125 2250.5501098632812 51.9189453125Q2305.9104614257812 51.9189453125 2337.915802001953 73.80914306640625Q2369.921142578125 95.6993408203125 2369.921142578125 132.8997802734375Q2369.921142578125 170.81024169921875 2339.6258239746094 186.50534057617188Q2309.3305053710938 202.200439453125 2256.1002197265625 211.6204833984375L2215.31982421875 218.75054931640625Q2167.5799560546875 227.33050537109375 2128.840087890625 244.1204833984375Q2090.1002197265625 260.91046142578125 2067.2953186035156 289.7803955078125Q2044.4904174804688 318.65032958984375 2044.4904174804688 362.68017578125Q2044.4904174804688 428.86993408203125 2095.2953186035156 465.8848571777344Q2146.1002197265625 502.8997802734375 2229.840087890625 502.8997802734375Q2312.840087890625 502.8997802734375 2364.644989013672 465.5447692871094Q2416.4498901367188 428.18975830078125 2430.6098022460938 360.3795166015625L2356.921142578125 341.4200439453125Q2347.5010986328125 393.6204833984375 2313.7708129882812 415.3006591796875Q2280.04052734375 436.9808349609375 2229.840087890625 436.9808349609375Q2180.3496704101562 436.9808349609375 2151.4093627929688 418.4456481933594Q2122.4690551757812 399.91046142578125 2122.4690551757812 364.4200439453125Q2122.4690551757812 329.0596923828125 2149.5692749023438 312.58953857421875Q2176.6694946289062 296.119384765625 2223.4498901367188 287.98931884765625L2264.2302856445312 280.8592529296875Q2315.9701538085938 272.279296875 2357.5650329589844 256.48931884765625Q2399.159912109375 240.6993408203125 2423.5298461914062 211.97439575195312Q2447.8997802734375 183.24945068359375 2447.8997802734375 135.50958251953125Q2447.8997802734375 63.8997802734375 2394.5948791503906 24.94989013671875Q2341.2899780273438 -14.0 2250.5501098632812 -14.0ZM2795.3603515625 -14.0Q2720.6503295898438 -14.0 2664.8603515625 17.5Q2609.0703735351562 49.0 2577.9253845214844 106.14498901367188Q2546.7803955078125 163.28997802734375 2546.7803955078125 238.44989013671875V250.44989013671875Q2546.7803955078125 326.31982421875 2577.7803955078125 383.10980224609375Q2608.7803955078125 439.8997802734375 2663.715362548828 471.3997802734375Q2718.6503295898438 502.8997802734375 2789.8102416992188 502.8997802734375Q2859.2601318359375 502.8997802734375 2912.195098876953 473.2398681640625Q2965.1300659179688 443.5799560546875 2995.1300659179688 388.9200439453125Q3025.1300659179688 334.2601318359375 3025.1300659179688 259.68017578125V224.49041748046875H2626.4989013671875Q2629.2089233398438 145.08953857421875 2676.924285888672 100.66415405273438Q2724.6396484375 56.23876953125 2796.520263671875 56.23876953125Q2860.1705932617188 56.23876953125 2894.045867919922 84.9189453125Q2927.921142578125 113.59912109375 2945.8912963867188 153.66949462890625L3014.1002197265625 120.97015380859375Q2999.3901977539062 90.0 2972.8901977539062 58.78997802734375Q2946.3901977539062 27.5799560546875 2903.8102416992188 6.78997802734375Q2861.2302856445312 -14.0 2795.3603515625 -14.0ZM2627.4989013671875 288.66949462890625H2944.7015380859375Q2940.7015380859375 357.23028564453125 2898.4861755371094 394.9456481933594Q2856.2708129882812 432.6610107421875 2789.520263671875 432.6610107421875Q2722.8997802734375 432.6610107421875 2680.119384765625 394.9456481933594Q2637.3389892578125 357.23028564453125 2627.4989013671875 288.66949462890625ZM3152.7803955078125 0.0V488.8997802734375H3229.9189453125V406.14923095703125H3243.6588134765625Q3259.9189453125 441.3795166015625 3298.59912109375 469.84967041015625Q3337.279296875 498.31982421875 3412.0895385742188 498.31982421875Q3466.5394287109375 498.31982421875 3510.3944396972656 475.0149230957031Q3554.2494506835938 451.71002197265625 3580.0245056152344 406.63006591796875Q3605.799560546875 361.55010986328125 3605.799560546875 296.0V0.0H3526.6610107421875V290.2601318359375Q3526.6610107421875 363.3006591796875 3490.2857360839844 396.27081298828125Q3453.9104614257812 429.240966796875 3391.5501098632812 429.240966796875Q3321.479736328125 429.240966796875 3276.6993408203125 382.93072509765625Q3231.9189453125 336.6204833984375 3231.9189453125 245.60980224609375V0.0ZM3935.840087890625 0.0Q3893.9403076171875 0.0 3871.2505493164062 23.044769287109375Q3848.560791015625 46.08953857421875 3848.560791015625 86.439208984375V420.40087890625H3701.840087890625V488.8997802734375H3848.560791015625V662.7803955078125H3927.6993408203125V488.8997802734375H4087.840087890625V420.40087890625H3927.6993408203125V98.4989013671875Q3927.6993408203125 68.4989013671875 3957.119384765625 68.4989013671875H4065.8997802734375V0.0ZM4205.7803955078125 0.0V488.8997802734375H4284.9189453125V0.0ZM4245.349670410156 565.3603515625Q4219.869934082031 565.3603515625 4202.405120849609 582.3901977539062Q4184.9403076171875 599.4200439453125 4184.9403076171875 625.479736328125Q4184.9403076171875 652.2494506835938 4202.405120849609 668.9242858886719Q4219.869934082031 685.59912109375 4245.349670410156 685.59912109375Q4271.829406738281 685.59912109375 4288.794219970703 668.9242858886719Q4305.759033203125 652.2494506835938 4305.759033203125 625.479736328125Q4305.759033203125 599.4200439453125 4288.794219970703 582.3901977539062Q4271.829406738281 565.3603515625 4245.349670410156 565.3603515625ZM4591.230285644531 -14.0Q4539.650329589844 -14.0 4498.005340576172 3.78997802734375Q4456.3603515625 21.5799560546875 4432.215362548828 56.014923095703125Q4408.070373535156 90.44989013671875 4408.070373535156 139.31982421875Q4408.070373535156 188.8997802734375 4432.215362548828 221.62472534179688Q4456.3603515625 254.34967041015625 4498.085296630859 270.7846374511719Q4539.810241699219 287.2196044921875 4591.550109863281 287.2196044921875H4757.371032714844V323.02984619140625Q4757.371032714844 375.07037353515625 4726.850769042969 405.0256042480469Q4696.330505371094 434.9808349609375 4636.2601318359375 434.9808349609375Q4577.189758300781 434.9808349609375 4543.894439697266 406.380615234375Q4510.59912109375 377.7803955078125 4499.3389892578125 330.28997802734375L4424.520263671875 353.66949462890625Q4436.520263671875 395.2196044921875 4462.665252685547 428.84967041015625Q4488.810241699219 462.479736328125 4532.245208740234 482.68975830078125Q4575.68017578125 502.8997802734375 4636.840087890625 502.8997802734375Q4730.5799560546875 502.8997802734375 4782.964813232422 454.60980224609375Q4835.349670410156 406.31982421875 4835.349670410156 318.28997802734375V97.078857421875Q4835.349670410156 67.078857421875 4863.349670410156 67.078857421875H4908.31982421875V0.0H4838.520263671875Q4805.7803955078125 0.0 4786.04052734375 18.355010986328125Q4766.3006591796875 36.71002197265625 4766.3006591796875 68.13006591796875V73.39019775390625H4753.690856933594Q4743.3006591796875 54.28997802734375 4724.685516357422 33.724945068359375Q4706.070373535156 13.159912109375 4673.9403076171875 -0.4200439453125Q4641.810241699219 -14.0 4591.230285644531 -14.0ZM4600.449890136719 53.9189453125Q4670.490417480469 53.9189453125 4713.930725097656 95.48931884765625Q4757.371032714844 137.0596923828125 4757.371032714844 211.6204833984375V223.04052734375H4594.869934082031Q4547.799560546875 223.04052734375 4517.504241943359 202.71536254882812Q4487.208923339844 182.39019775390625 4487.208923339844 141.18975830078125Q4487.208923339844 99.98931884765625 4518.504241943359 76.95413208007812Q4549.799560546875 53.9189453125 4600.449890136719 53.9189453125ZM5005.7803955078125 0.0V700.0H5084.9189453125V0.0Z"/></g></svg>